<?xml version="1.0" standalone="no"?>
<!DOCTYPE svg PUBLIC "-//W3C//DTD SVG 20010904//EN"
 "http://www.w3.org/TR/2001/REC-SVG-20010904/DTD/svg10.dtd">
<svg version="1.0" xmlns="http://www.w3.org/2000/svg"
 width="260.000000pt" height="260.000000pt" viewBox="0 0 260.000000 260.000000"
 preserveAspectRatio="xMidYMid meet">
<metadata>
Created by potrace 1.14, written by Peter Selinger 2001-2017
</metadata>
<g transform="translate(0.000000,260.000000) scale(0.100000,-0.100000)"
fill="#000000" stroke="none">
<path d="M1090 2593 c-334 -49 -607 -203 -812 -458 -180 -226 -268 -464 -274
-745 -6 -329 117 -641 344 -869 91 -91 210 -184 229 -177 7 3 12 1 10 -5 -3
-15 122 -81 141 -74 9 3 13 3 9 -1 -17 -18 230 -100 248 -83 5 5 14 9 20 9 5
0 3 -5 -5 -10 -8 -5 -10 -10 -5 -10 6 0 39 -5 74 -11 51 -8 66 -7 72 3 7 10 9
10 9 1 0 -10 26 -13 96 -13 52 0 93 4 90 8 -3 5 8 6 24 4 44 -6 102 7 94 21
-5 9 -4 9 5 1 14 -13 54 -7 46 6 -3 5 4 6 15 3 11 -3 26 0 33 6 8 6 18 7 22 3
5 -4 5 -1 1 6 -4 6 -4 13 1 13 4 1 20 3 34 4 14 2 42 13 62 24 21 11 37 18 37
15 0 -3 13 3 30 13 17 9 30 21 30 25 0 5 -13 2 -30 -7 -16 -9 -30 -13 -30 -11
0 3 13 12 29 20 19 10 31 12 38 5 8 -8 18 -7 34 2 13 7 28 12 32 11 4 -1 10 5
13 13 4 8 12 15 20 15 8 0 14 7 14 15 0 13 -3 13 -20 3 -11 -7 -20 -20 -21
-28 0 -10 -2 -11 -6 -3 -4 10 -10 10 -26 -2 -12 -8 -26 -15 -32 -15 -5 0 25
22 68 50 82 52 82 52 138 99 20 17 39 27 43 23 4 -4 6 -2 4 4 -1 6 15 29 37
51 103 102 217 280 231 361 3 15 9 32 15 38 5 6 10 29 12 52 1 22 5 38 8 36 4
-2 9 5 12 16 3 13 1 18 -6 13 -7 -4 -6 0 1 10 8 9 11 21 7 27 -3 5 -1 10 6 10
7 0 10 11 7 30 -3 16 0 30 5 30 5 0 7 15 4 35 -3 20 -2 33 3 30 11 -7 7 14 -9
45 -11 23 -11 24 3 6 16 -19 16 -19 16 2 0 12 -6 22 -12 22 -8 0 -9 3 -3 8 6
4 10 26 11 50 1 42 -9 56 -20 26 -3 -8 -2 -12 4 -9 6 3 10 1 10 -4 0 -6 -6
-11 -14 -11 -9 0 -14 9 -13 20 1 11 4 20 8 20 10 0 17 60 8 66 -5 2 -6 11 -2
19 3 8 0 15 -5 15 -6 0 -13 12 -15 28 -3 15 -3 -7 -1 -48 3 -80 -9 -71 -19 15
-7 58 -12 77 -39 165 -33 105 -36 89 -6 -30 15 -60 29 -142 30 -182 2 -40 8
-76 13 -80 6 -5 5 -8 -3 -8 -7 0 -10 -5 -7 -10 4 -6 1 -9 -7 -8 -9 2 -14 -19
-19 -82 -3 -47 -9 -94 -12 -105 -3 -11 -8 -31 -11 -45 -6 -31 -34 -108 -35
-95 -1 6 4 27 10 49 6 21 13 47 15 57 2 11 6 29 9 42 10 39 18 292 9 284 -4
-4 -7 -28 -5 -53 1 -26 -4 -53 -11 -62 -10 -12 -10 -14 0 -8 15 9 15 12 1 -77
-6 -40 -16 -78 -23 -86 -7 -10 -7 -13 0 -8 7 4 10 -2 6 -18 -2 -14 -8 -23 -12
-20 -4 2 -5 -7 -2 -20 2 -14 0 -25 -5 -25 -5 0 -10 -12 -11 -27 -1 -16 -6 -29
-12 -31 -5 -2 -6 -10 -3 -19 4 -11 2 -14 -5 -9 -8 5 -10 2 -6 -8 3 -9 1 -16
-6 -16 -6 0 -8 -5 -5 -10 4 -6 -6 -27 -21 -47 -15 -20 -21 -33 -13 -29 8 4 3
-2 -11 -14 -14 -12 -19 -19 -12 -15 21 11 13 -5 -15 -32 -16 -15 -21 -23 -13
-19 9 5 8 2 -2 -7 -10 -8 -17 -16 -15 -18 1 -2 0 -3 -2 -2 -7 4 -31 -19 -31
-29 0 -5 5 -6 12 -2 7 5 8 3 4 -5 -5 -7 -10 -10 -13 -7 -3 3 -48 -35 -100 -84
-53 -50 -101 -90 -108 -90 -7 0 -15 -7 -19 -15 -3 -8 -14 -15 -24 -15 -11 0
-30 -8 -43 -18 -31 -24 -161 -82 -208 -94 -20 -5 -45 -11 -56 -14 -11 -3 -28
-6 -37 -6 -10 1 -18 -2 -18 -6 0 -7 -6 -8 -172 -15 -311 -13 -611 124 -808
370 -99 123 -183 297 -204 424 -3 19 -8 45 -11 59 -10 46 -7 224 4 290 49 274
217 533 446 685 96 64 168 97 284 132 75 22 105 26 236 27 171 1 188 -1 385
-49 80 -20 165 -38 191 -40 100 -8 103 45 9 137 -81 79 -189 132 -335 164 -65
15 -306 25 -365 17z m1275 -1252 c3 -5 2 -12 -3 -15 -5 -3 -9 1 -9 9 0 17 3
19 12 6z m-58 -23 c-3 -8 -6 -5 -6 6 -1 11 2 17 5 13 3 -3 4 -12 1 -19z m0
-40 c-3 -8 -6 -5 -6 6 -1 11 2 17 5 13 3 -3 4 -12 1 -19z m-904 -1105 c-7 -2
-19 -2 -25 0 -7 3 -2 5 12 5 14 0 19 -2 13 -5z"/>
<path d="M2380 2368 c-14 -6 -56 -26 -93 -45 -37 -18 -72 -31 -77 -28 -5 3
-12 0 -16 -6 -5 -8 -3 -9 6 -4 9 6 11 4 6 -4 -5 -7 -15 -10 -23 -7 -8 3 -12 2
-9 -3 4 -5 -32 -36 -79 -70 -47 -33 -85 -59 -85 -56 0 2 34 29 75 60 41 30 75
58 75 61 0 3 -17 -8 -37 -24 -21 -16 -52 -37 -70 -45 -17 -9 -60 -38 -95 -64
-35 -27 -68 -49 -75 -50 -6 -1 -32 -22 -58 -45 -26 -24 -51 -43 -56 -43 -4 0
-14 -7 -21 -15 -11 -12 -10 -12 7 0 11 8 -12 -17 -51 -55 -139 -137 -347 -409
-489 -639 -49 -80 -95 -146 -101 -146 -18 0 -72 85 -153 245 -39 77 -61 108
-94 132 -122 91 -248 18 -234 -136 9 -107 206 -457 322 -573 59 -59 99 -78
167 -78 100 0 186 71 264 217 73 136 101 184 178 298 68 100 233 321 271 361
5 6 25 29 44 50 19 21 52 58 73 80 29 30 36 44 27 49 -8 6 -10 4 -4 -5 5 -9 4
-11 -4 -6 -6 4 -9 12 -5 17 3 5 10 7 15 4 5 -4 9 -1 9 5 0 6 5 8 12 4 6 -4 8
-3 5 3 -4 6 0 16 8 23 8 7 15 9 15 5 0 -4 7 -2 16 6 8 7 13 20 11 30 -3 12 0
15 14 12 11 -3 19 0 19 6 0 7 6 9 13 5 6 -4 9 -4 5 1 -4 4 0 14 10 22 15 11
13 12 -13 1 -16 -7 -33 -16 -36 -21 -3 -5 -10 -8 -15 -8 -5 1 -9 -8 -9 -18 0
-11 -4 -23 -8 -28 -5 -4 -7 -1 -5 7 1 8 -4 15 -12 15 -8 0 -15 -6 -15 -14 0
-8 -9 -15 -20 -17 -14 -2 -4 12 33 47 30 27 58 47 63 43 5 -3 8 -1 7 4 -2 6
33 39 77 74 94 74 168 145 154 150 -5 2 1 9 13 17 21 13 22 13 9 -2 -19 -24
-11 -21 55 18 32 19 51 35 43 35 -12 0 -12 2 1 10 8 5 11 10 5 10 -5 0 -17 -5
-25 -10 -12 -8 -12 -10 -1 -10 8 0 12 -3 8 -6 -3 -3 -13 -2 -22 3 -14 8 -12
12 13 22 17 7 35 11 39 8 5 -3 15 -2 23 4 13 7 13 9 0 9 -12 0 -12 2 -1 9 9 6
10 11 2 15 -6 4 -11 2 -11 -4 0 -7 -9 -9 -22 -5 -18 5 -20 4 -8 -4 17 -12 1
-15 -18 -3 -8 6 15 21 68 46 44 21 79 41 76 43 -6 6 -165 -57 -172 -68 -3 -5
-15 -7 -26 -3 -15 4 -18 3 -13 -6 5 -9 4 -11 -3 -6 -7 4 -12 9 -12 11 0 11 62
35 72 29 6 -4 8 -3 5 3 -4 6 11 18 33 28 22 10 38 20 36 22 -8 8 -131 -50
-219 -103 -50 -30 -92 -54 -94 -54 -8 0 63 56 102 82 23 14 64 37 93 52 64 33
74 51 12 24z m29 -161 c-2 -1 -13 -9 -24 -17 -19 -14 -19 -14 -6 3 7 9 18 17
24 17 6 0 8 -1 6 -3z m-469 -460 c0 -2 -10 -12 -22 -23 l-23 -19 19 23 c18 21
26 27 26 19z m-50 -51 c0 -2 -8 -10 -17 -17 -16 -13 -17 -12 -4 4 13 16 21 21
21 13z m-30 -39 c0 -2 -17 -19 -37 -38 l-38 -34 34 38 c33 34 41 42 41 34z
m-70 -80 c0 -2 -12 -14 -27 -28 l-28 -24 24 28 c23 25 31 32 31 24z"/>
<path d="M2282 1525 c0 -16 2 -22 5 -12 2 9 2 23 0 30 -3 6 -5 -1 -5 -18z"/>
<path d="M2262 1490 c0 -14 2 -19 5 -12 2 6 2 18 0 25 -3 6 -5 1 -5 -13z"/>
<path d="M2288 1425 c2 -36 7 -63 11 -60 4 2 7 14 5 27 -1 13 -3 40 -3 61 -1
20 -4 37 -8 37 -5 0 -6 -29 -5 -65z"/>
<path d="M1992 450 c-7 -11 -19 -20 -27 -20 -8 0 -15 -4 -15 -10 0 -5 -7 -10
-16 -10 -8 0 -12 -4 -9 -10 3 -6 -4 -10 -16 -10 -18 0 -20 -3 -11 -12 9 -9 16
-8 30 5 10 9 22 14 27 10 4 -5 5 -3 2 3 -3 6 5 17 18 24 14 7 25 17 25 22 0 5
4 6 10 3 6 -3 7 1 4 9 -8 20 -7 20 -22 -4z"/>
</g>
</svg>
